<svg xmlns="http://www.w3.org/2000/svg" viewBox="0 0 2200 1200" width="2200" height="1200" role="img">
  <defs>
    <linearGradient id="bg1" x1="0" y1="0" x2="1" y2="0.7">
      <stop offset="0" stop-color="#8f8e8b" stop-opacity="0.3"/>
      <stop offset="0.5" stop-color="#8f8e8b" stop-opacity="0.1"/>
      <stop offset="1" stop-color="#08090a" stop-opacity="1"/>
    </linearGradient>
    <clipPath id="bc1"><rect width="2200" height="1200"/></clipPath>
  </defs>
  <g clip-path="url(#bc1)">
    <rect width="2200" height="1200" fill="#0a0b0c"/>
    <rect width="2200" height="1200" fill="url(#bg1)"/><rect x="120" y="189.807621401269" width="240" height="776.1924621229991" rx="18" fill="#08090a" fill-opacity="0.41947866370901465" stroke="rgba(255,255,255,0.09)"/><rect x="150" y="223.807621401269" width="107.14123102650046" height="9" rx="4" fill="rgba(255,255,255,0.14590254242531955)"/><rect x="150" y="253.807621401269" width="189.7586617693305" height="9" rx="4" fill="rgba(255,255,255,0.12480975159443915)"/><rect x="150" y="283.807621401269" width="72.10089056566358" height="9" rx="4" fill="rgba(255,255,255,0.14319696790538727)"/><rect x="150" y="313.807621401269" width="173.33087150752544" height="9" rx="4" fill="rgba(255,255,255,0.1772242205310613)"/><rect x="400" y="391.5716707194224" width="240" height="375.7060446124524" rx="18" fill="#08090a" fill-opacity="0.3123234834522009" stroke="rgba(255,255,255,0.09)"/><rect x="430" y="425.5716707194224" width="84.21613914705813" height="9" rx="4" fill="rgba(255,255,255,0.15734191367402672)"/><rect x="430" y="455.5716707194224" width="189.18641608022153" height="9" rx="4" fill="rgba(255,255,255,0.16755408748984335)"/><rect x="430" y="485.5716707194224" width="127.80718827433886" height="9" rx="4" fill="rgba(255,255,255,0.06839050060138106)"/><rect x="430" y="515.5716707194224" width="98.34167055599391" height="9" rx="4" fill="rgba(255,255,255,0.1375103725120425)"/><rect x="680" y="301.9171667541377" width="240" height="722.5244489917532" rx="18" fill="#08090a" fill-opacity="0.5849782642908394" stroke="rgba(255,255,255,0.09)"/><rect x="710" y="335.9171667541377" width="173.93876959383488" height="9" rx="4" fill="rgba(255,255,255,0.07878633473999798)"/><rect x="710" y="365.9171667541377" width="104.16125188395381" height="9" rx="4" fill="rgba(255,255,255,0.0961202949564904)"/><rect x="710" y="395.9171667541377" width="114.29060892015696" height="9" rx="4" fill="rgba(255,255,255,0.06414098099805414)"/><rect x="710" y="425.9171667541377" width="186.72394281998277" height="9" rx="4" fill="rgba(255,255,255,0.15925058855675162)"/><rect x="960" y="356.27641413360834" width="240" height="376.9355158507824" rx="18" fill="#08090a" fill-opacity="0.6269184546545148" stroke="rgba(255,255,255,0.09)"/><rect x="990" y="390.27641413360834" width="82.54829861037433" height="9" rx="4" fill="rgba(255,255,255,0.07507259007543325)"/><rect x="990" y="420.27641413360834" width="163.32346727885306" height="9" rx="4" fill="rgba(255,255,255,0.16270048962906003)"/><rect x="990" y="450.27641413360834" width="72.82796788774431" height="9" rx="4" fill="rgba(255,255,255,0.061576504334807394)"/><rect x="990" y="480.27641413360834" width="191.2060520220548" height="9" rx="4" fill="rgba(255,255,255,0.10207016749307513)"/><rect x="1240" y="456.4985641487874" width="240" height="375.01859940122813" rx="18" fill="#08090a" fill-opacity="0.6683620016090572" stroke="rgba(255,255,255,0.09)"/><rect x="1270" y="490.4985641487874" width="148.5466515161097" height="9" rx="4" fill="rgba(255,255,255,0.06344300924800336)"/><rect x="1270" y="520.4985641487874" width="115.29668954014778" height="9" rx="4" fill="rgba(255,255,255,0.11048497122712433)"/><rect x="1270" y="550.4985641487874" width="117.05998587235808" height="9" rx="4" fill="rgba(255,255,255,0.0813123435806483)"/><rect x="1270" y="580.4985641487874" width="149.0267353579402" height="9" rx="4" fill="rgba(255,255,255,0.09499983214773237)"/><rect x="1520" y="410.86372257675976" width="240" height="426.99161504395306" rx="18" fill="#08090a" fill-opacity="0.6115211866796018" stroke="rgba(255,255,255,0.09)"/><rect x="1550" y="444.86372257675976" width="101.30551593191922" height="9" rx="4" fill="rgba(255,255,255,0.09223473457619547)"/><rect x="1550" y="474.86372257675976" width="141.89859852008522" height="9" rx="4" fill="rgba(255,255,255,0.13302980158478023)"/><rect x="1550" y="504.86372257675976" width="150.81106303073466" height="9" rx="4" fill="rgba(255,255,255,0.15301939034834505)"/><rect x="1550" y="534.8637225767598" width="81.0477357711643" height="9" rx="4" fill="rgba(255,255,255,0.15071265399456024)"/><rect x="1800" y="358.9519106573425" width="240" height="348.37866932619363" rx="18" fill="#08090a" fill-opacity="0.42284469986334444" stroke="rgba(255,255,255,0.09)"/><rect x="1830" y="392.9519106573425" width="122.54016675800086" height="9" rx="4" fill="rgba(255,255,255,0.17940101810730993)"/><rect x="1830" y="422.9519106573425" width="159.99322681501508" height="9" rx="4" fill="rgba(255,255,255,0.17419241971336305)"/><rect x="1830" y="452.9519106573425" width="77.75154237449169" height="9" rx="4" fill="rgba(255,255,255,0.07439905752427875)"/><rect x="1830" y="482.9519106573425" width="91.55375684425235" height="9" rx="4" fill="rgba(255,255,255,0.08543933588080108)"/><line x1="0" y1="388.8514716178179" x2="2200" y2="388.8514716178179" stroke="#08090a" stroke-opacity="0.09860508104786278" stroke-width="2.553123685065657"/><line x1="0" y1="1164.0351324342191" x2="2200" y2="1164.0351324342191" stroke="#08090a" stroke-opacity="0.05747310906648636" stroke-width="2.7157874137628824"/><line x1="0" y1="701.239032112062" x2="2200" y2="701.239032112062" stroke="#08090a" stroke-opacity="0.10554719315841793" stroke-width="1.0216545043513179"/><line x1="0" y1="68.8237183727324" x2="2200" y2="68.8237183727324" stroke="#08090a" stroke-opacity="0.11220706265419722" stroke-width="3.994371829321608"/><line x1="0" y1="590.9621872007847" x2="2200" y2="590.9621872007847" stroke="#08090a" stroke-opacity="0.06786213023588061" stroke-width="2.170611887704581"/><line x1="0" y1="584.2341545037925" x2="2200" y2="584.2341545037925" stroke="#08090a" stroke-opacity="0.1092871328443289" stroke-width="1.8881179133895785"/><line x1="0" y1="71.19548264890909" x2="2200" y2="71.19548264890909" stroke="#08090a" stroke-opacity="0.10293584952130913" stroke-width="3.7678710594773293"/><line x1="0" y1="513.3921680040658" x2="2200" y2="513.3921680040658" stroke="#08090a" stroke-opacity="0.09211523566395044" stroke-width="1.4323365602176636"/><line x1="0" y1="688.4400900453329" x2="2200" y2="688.4400900453329" stroke="#08090a" stroke-opacity="0.0682776183448732" stroke-width="1.808535170275718"/><line x1="0" y1="285.00284319743514" x2="2200" y2="285.00284319743514" stroke="#08090a" stroke-opacity="0.10939031854271888" stroke-width="1.70716588688083"/><line x1="0" y1="402.4256927892566" x2="2200" y2="402.4256927892566" stroke="#08090a" stroke-opacity="0.08730477364733816" stroke-width="3.896529001183808"/><line x1="0" y1="257.55975851789117" x2="2200" y2="257.55975851789117" stroke="#08090a" stroke-opacity="0.07602190401405096" stroke-width="1.6999159750994295"/><line x1="0" y1="938.6625185608864" x2="2200" y2="938.6625185608864" stroke="#08090a" stroke-opacity="0.11413260845467449" stroke-width="3.961504557635635"/><line x1="0" y1="432.80094964429736" x2="2200" y2="432.80094964429736" stroke="#08090a" stroke-opacity="0.058932549431920056" stroke-width="2.527322670677677"/><line x1="0" y1="590.6454714015126" x2="2200" y2="590.6454714015126" stroke="#08090a" stroke-opacity="0.042437744680792096" stroke-width="1.9693837482482195"/><line x1="0" y1="876.7027144320309" x2="2200" y2="876.7027144320309" stroke="#08090a" stroke-opacity="0.05793476957827806" stroke-width="1.4206645421218127"/><line x1="0" y1="542.0716915279627" x2="2200" y2="542.0716915279627" stroke="#08090a" stroke-opacity="0.051041476633399724" stroke-width="2.2291992814280093"/><line x1="0" y1="256.8491502664983" x2="2200" y2="256.8491502664983" stroke="#08090a" stroke-opacity="0.1010085940361023" stroke-width="2.082751787500456"/><line x1="0" y1="50.917246006429195" x2="2200" y2="50.917246006429195" stroke="#08090a" stroke-opacity="0.10081269459798933" stroke-width="2.1010433500632644"/><line x1="0" y1="1156.187189463526" x2="2200" y2="1156.187189463526" stroke="#08090a" stroke-opacity="0.0643215562030673" stroke-width="1.6459130661096424"/></g></svg>
