<svg xmlns="http://www.w3.org/2000/svg" viewBox="0 0 1440 900" width="1440" height="900" role="img"><rect width="1440" height="900" fill="#0d0e10"/><rect x="0" y="0" width="230" height="900" fill="#16181c"/><rect x="28" y="34" width="26" height="26" rx="7" fill="#c9a6ff"/><rect x="30" y="104" width="14" height="14" rx="4" fill="rgba(236,235,231,0.22)"/><rect x="56" y="107" width="131.65403101593256" height="9" rx="4" fill="rgba(236,235,231,0.22)"/><rect x="16" y="140" width="198" height="36" rx="8" fill="#1e2126"/><rect x="30" y="150" width="14" height="14" rx="4" fill="#c9a6ff"/><rect x="56" y="153" width="124.86223297193646" height="9" rx="4" fill="rgba(236,235,231,0.8)"/><rect x="30" y="196" width="14" height="14" rx="4" fill="rgba(236,235,231,0.22)"/><rect x="56" y="199" width="127.22305037081242" height="9" rx="4" fill="rgba(236,235,231,0.22)"/><rect x="30" y="242" width="14" height="14" rx="4" fill="rgba(236,235,231,0.22)"/><rect x="56" y="245" width="86.80391436442733" height="9" rx="4" fill="rgba(236,235,231,0.22)"/><rect x="30" y="288" width="14" height="14" rx="4" fill="rgba(236,235,231,0.22)"/><rect x="56" y="291" width="144.4428862258792" height="9" rx="4" fill="rgba(236,235,231,0.22)"/><rect x="30" y="334" width="14" height="14" rx="4" fill="rgba(236,235,231,0.22)"/><rect x="56" y="337" width="134.08056939020753" height="9" rx="4" fill="rgba(236,235,231,0.22)"/><rect x="30" y="380" width="14" height="14" rx="4" fill="rgba(236,235,231,0.22)"/><rect x="56" y="383" width="118.64967301487923" height="9" rx="4" fill="rgba(236,235,231,0.22)"/><rect x="30" y="426" width="14" height="14" rx="4" fill="rgba(236,235,231,0.22)"/><rect x="56" y="429" width="125.86052967235446" height="9" rx="4" fill="rgba(236,235,231,0.22)"/><rect x="230" y="0" width="1210" height="78" fill="#16181c"/><rect x="270" y="32" width="240" height="14" rx="6" fill="rgba(236,235,231,0.72)"/><rect x="1250" y="26" width="140" height="28" rx="14" fill="#c9a6ff" fill-opacity="0.9"/><rect x="268" y="112" width="264" height="118" rx="14" fill="#16181c" stroke="rgba(236,235,231,0.10)"/><rect x="290" y="140" width="110.27873522602022" height="8" rx="4" fill="rgba(236,235,231,0.22)"/><rect x="290" y="166" width="95.9161696722731" height="24" rx="6" fill="rgba(236,235,231,0.72)"/><rect x="290" y="204" width="118.65042500197887" height="7" rx="3" fill="rgba(236,235,231,0.10)"/><rect x="556" y="112" width="264" height="118" rx="14" fill="#16181c" stroke="rgba(236,235,231,0.10)"/><rect x="578" y="140" width="110.67139253485948" height="8" rx="4" fill="rgba(236,235,231,0.22)"/><rect x="578" y="166" width="103.82316534407437" height="24" rx="6" fill="#c9a6ff"/><rect x="578" y="204" width="161.2778983451426" height="7" rx="3" fill="rgba(236,235,231,0.10)"/><rect x="844" y="112" width="264" height="118" rx="14" fill="#16181c" stroke="rgba(236,235,231,0.10)"/><rect x="866" y="140" width="61.97128973901272" height="8" rx="4" fill="rgba(236,235,231,0.22)"/><rect x="866" y="166" width="145.216908515431" height="24" rx="6" fill="rgba(236,235,231,0.72)"/><rect x="866" y="204" width="135.0809681788087" height="7" rx="3" fill="rgba(236,235,231,0.10)"/><rect x="1132" y="112" width="264" height="118" rx="14" fill="#16181c" stroke="rgba(236,235,231,0.10)"/><rect x="1154" y="140" width="118.08245202060789" height="8" rx="4" fill="rgba(236,235,231,0.22)"/><rect x="1154" y="166" width="117.613680716604" height="24" rx="6" fill="rgba(236,235,231,0.72)"/><rect x="1154" y="204" width="131.4118448458612" height="7" rx="3" fill="rgba(236,235,231,0.10)"/><rect x="268" y="256" width="700" height="330" rx="14" fill="#16181c" stroke="rgba(236,235,231,0.10)"/><polyline points="300,436.422199527733 329,406.8159849778749 358,422.54238238558173 387,344.18744559166953 416,383.020558883436 445,310.92253650771454 474,290.2275887038559 503,412.2343708551489 532,351.29475185181946 561,321.97323493892327 590,364.03379641473293 619,400.12431849492714 648,346.38985375408083 677,296.4670965564437 706,449.04269964434206 735,384.77258363505825 764,289.92223049979657 793,385.8697590441443 822,285.8200394548476 851,406.3206653180532 880,360.5856176884845 909,340.4300098051317 938,457.2179720085114 " fill="none" stroke="#c9a6ff" stroke-width="2.5" stroke-linejoin="round"/><line x1="300" y1="300" x2="936" y2="300" stroke="rgba(236,235,231,0.10)"/><line x1="300" y1="355" x2="936" y2="355" stroke="rgba(236,235,231,0.10)"/><line x1="300" y1="410" x2="936" y2="410" stroke="rgba(236,235,231,0.10)"/><line x1="300" y1="465" x2="936" y2="465" stroke="rgba(236,235,231,0.10)"/><line x1="300" y1="520" x2="936" y2="520" stroke="rgba(236,235,231,0.10)"/><rect x="996" y="256" width="416" height="330" rx="14" fill="#16181c" stroke="rgba(236,235,231,0.10)"/><circle cx="1030" cy="300" r="12" fill="#c9a6ff"/><rect x="1056" y="292" width="261.04879777878523" height="9" rx="4" fill="rgba(236,235,231,0.22)"/><rect x="1056" y="309" width="116.94015457760543" height="7" rx="3" fill="rgba(236,235,231,0.10)"/><circle cx="1030" cy="362" r="12" fill="#1e2126"/><rect x="1056" y="354" width="305.85672218352556" height="9" rx="4" fill="rgba(236,235,231,0.22)"/><rect x="1056" y="371" width="156.52316730469465" height="7" rx="3" fill="rgba(236,235,231,0.10)"/><circle cx="1030" cy="424" r="12" fill="#1e2126"/><rect x="1056" y="416" width="277.87371452897787" height="9" rx="4" fill="rgba(236,235,231,0.22)"/><rect x="1056" y="433" width="147.62656268198043" height="7" rx="3" fill="rgba(236,235,231,0.10)"/><circle cx="1030" cy="486" r="12" fill="#1e2126"/><rect x="1056" y="478" width="240.87882850319147" height="9" rx="4" fill="rgba(236,235,231,0.22)"/><rect x="1056" y="495" width="129.25414712168276" height="7" rx="3" fill="rgba(236,235,231,0.10)"/><circle cx="1030" cy="548" r="12" fill="#1e2126"/><rect x="1056" y="540" width="285.30459832400084" height="9" rx="4" fill="rgba(236,235,231,0.22)"/><rect x="1056" y="557" width="109.2915748944506" height="7" rx="3" fill="rgba(236,235,231,0.10)"/><rect x="268" y="614" width="1144" height="240" rx="14" fill="#16181c" stroke="rgba(236,235,231,0.10)"/><rect x="296" y="654" width="169.94730294914916" height="9" rx="4" fill="rgba(236,235,231,0.22)" fill-opacity="1"/><rect x="620" y="654" width="131.09031671658158" height="9" rx="4" fill="rgba(236,235,231,0.10)"/><rect x="900" y="654" width="83.67779376450926" height="9" rx="4" fill="rgba(236,235,231,0.10)"/><rect x="1240" y="648" width="64" height="20" rx="10" fill="#c9a6ff" fill-opacity="0.18"/><line x1="296" y1="676" x2="1384" y2="676" stroke="rgba(236,235,231,0.10)"/><rect x="296" y="694" width="185.74492222163826" height="9" rx="4" fill="#c9a6ff" fill-opacity="0.9"/><rect x="620" y="694" width="101.70551443239674" height="9" rx="4" fill="rgba(236,235,231,0.10)"/><rect x="900" y="694" width="76.80172281339765" height="9" rx="4" fill="rgba(236,235,231,0.10)"/><rect x="1240" y="688" width="64" height="20" rx="10" fill="#c9a6ff" fill-opacity="0.18"/><line x1="296" y1="716" x2="1384" y2="716" stroke="rgba(236,235,231,0.10)"/><rect x="296" y="734" width="137.74507363094017" height="9" rx="4" fill="rgba(236,235,231,0.22)" fill-opacity="1"/><rect x="620" y="734" width="111.05795640964061" height="9" rx="4" fill="rgba(236,235,231,0.10)"/><rect x="900" y="734" width="79.78644154500216" height="9" rx="4" fill="rgba(236,235,231,0.10)"/><rect x="1240" y="728" width="64" height="20" rx="10" fill="#c9a6ff" fill-opacity="0.18"/><line x1="296" y1="756" x2="1384" y2="756" stroke="rgba(236,235,231,0.10)"/><rect x="296" y="774" width="166.16515964269638" height="9" rx="4" fill="rgba(236,235,231,0.22)" fill-opacity="1"/><rect x="620" y="774" width="82.80029302695766" height="9" rx="4" fill="rgba(236,235,231,0.10)"/><rect x="900" y="774" width="82.23610411398113" height="9" rx="4" fill="rgba(236,235,231,0.10)"/><rect x="1240" y="768" width="64" height="20" rx="10" fill="#c9a6ff" fill-opacity="0.18"/><line x1="296" y1="796" x2="1384" y2="796" stroke="rgba(236,235,231,0.10)"/><rect x="296" y="814" width="143.0466042109765" height="9" rx="4" fill="rgba(236,235,231,0.22)" fill-opacity="1"/><rect x="620" y="814" width="134.53808362595737" height="9" rx="4" fill="rgba(236,235,231,0.10)"/><rect x="900" y="814" width="95.86193267721683" height="9" rx="4" fill="rgba(236,235,231,0.10)"/><rect x="1240" y="808" width="64" height="20" rx="10" fill="#c9a6ff" fill-opacity="0.18"/><text x="268" y="884" fill="rgba(236,235,231,0.55)" font-family="Manrope, sans-serif" font-size="15">One question per screen, with "why we ask"</text></svg>
