<svg xmlns="http://www.w3.org/2000/svg" viewBox="0 0 2200 1200" width="2200" height="1200" role="img">
  <defs>
    <linearGradient id="bg2" x1="0" y1="0" x2="1" y2="0.7">
      <stop offset="0" stop-color="#cfcecb" stop-opacity="0.3"/>
      <stop offset="0.5" stop-color="#cfcecb" stop-opacity="0.1"/>
      <stop offset="1" stop-color="#08090a" stop-opacity="1"/>
    </linearGradient>
    <clipPath id="bc2"><rect width="2200" height="1200"/></clipPath>
  </defs>
  <g clip-path="url(#bc2)">
    <rect width="2200" height="1200" fill="#0a0b0c"/>
    <rect width="2200" height="1200" fill="url(#bg2)"/><rect x="120" y="423.4912449074909" width="240" height="293.85384359396994" rx="18" fill="#08090a" fill-opacity="0.5417616084218025" stroke="rgba(255,255,255,0.09)"/><rect x="150" y="457.4912449074909" width="172.70564699359238" height="9" rx="4" fill="rgba(255,255,255,0.11539016610011457)"/><rect x="150" y="487.4912449074909" width="136.55594996921718" height="9" rx="4" fill="rgba(255,255,255,0.12095066796988249)"/><rect x="150" y="517.4912449074909" width="130.93072539009154" height="9" rx="4" fill="rgba(255,255,255,0.15400809885933994)"/><rect x="150" y="547.4912449074909" width="131.08199957571924" height="9" rx="4" fill="rgba(255,255,255,0.07367193080484867)"/><rect x="400" y="482.8474493115209" width="240" height="297.91400362271816" rx="18" fill="#08090a" fill-opacity="0.45444046864286064" stroke="rgba(255,255,255,0.09)"/><rect x="430" y="516.8474493115209" width="106.64848402887583" height="9" rx="4" fill="rgba(255,255,255,0.15620632127858697)"/><rect x="430" y="546.8474493115209" width="87.25439674034715" height="9" rx="4" fill="rgba(255,255,255,0.13306238307617604)"/><rect x="430" y="576.8474493115209" width="143.51802867650986" height="9" rx="4" fill="rgba(255,255,255,0.15501092431135477)"/><rect x="430" y="606.8474493115209" width="159.11751451715827" height="9" rx="4" fill="rgba(255,255,255,0.16917982961051165)"/><rect x="680" y="419.7830617520958" width="240" height="325.0880672596395" rx="18" fill="#08090a" fill-opacity="0.5155286466702819" stroke="rgba(255,255,255,0.09)"/><rect x="710" y="453.7830617520958" width="106.50781202875078" height="9" rx="4" fill="rgba(255,255,255,0.124145313128829)"/><rect x="710" y="483.7830617520958" width="137.66392083652318" height="9" rx="4" fill="rgba(255,255,255,0.08615857047960163)"/><rect x="710" y="513.7830617520958" width="174.85571563057601" height="9" rx="4" fill="rgba(255,255,255,0.07838814128190279)"/><rect x="710" y="543.7830617520958" width="181.19541598297656" height="9" rx="4" fill="rgba(255,255,255,0.1081172207929194)"/><rect x="960" y="438.9170714956708" width="240" height="330.55386965628713" rx="18" fill="#08090a" fill-opacity="0.36536755701527" stroke="rgba(255,255,255,0.09)"/><rect x="990" y="472.9170714956708" width="80.18040942773223" height="9" rx="4" fill="rgba(255,255,255,0.06433085273019969)"/><rect x="990" y="502.9170714956708" width="152.9688923880458" height="9" rx="4" fill="rgba(255,255,255,0.07393036865629256)"/><rect x="990" y="532.9170714956708" width="187.21577211096883" height="9" rx="4" fill="rgba(255,255,255,0.061401167130097745)"/><rect x="990" y="562.9170714956708" width="178.04538269340992" height="9" rx="4" fill="rgba(255,255,255,0.07895590488798916)"/><rect x="1240" y="339.5944552728906" width="240" height="437.21115733496845" rx="18" fill="#08090a" fill-opacity="0.6731636952608824" stroke="rgba(255,255,255,0.09)"/><rect x="1270" y="373.5944552728906" width="190.28439281322062" height="9" rx="4" fill="rgba(255,255,255,0.17727558279410005)"/><rect x="1270" y="403.5944552728906" width="159.77850612066686" height="9" rx="4" fill="rgba(255,255,255,0.12622865974903108)"/><rect x="1270" y="433.5944552728906" width="160.1969126779586" height="9" rx="4" fill="rgba(255,255,255,0.09440343579277397)"/><rect x="1270" y="463.5944552728906" width="159.29112382046878" height="9" rx="4" fill="rgba(255,255,255,0.06620542254298925)"/><rect x="1520" y="168.2107447157614" width="240" height="764.6470506349578" rx="18" fill="#08090a" fill-opacity="0.6339948874898256" stroke="rgba(255,255,255,0.09)"/><rect x="1550" y="202.2107447157614" width="112.35785727202892" height="9" rx="4" fill="rgba(255,255,255,0.15070388068445026)"/><rect x="1550" y="232.2107447157614" width="137.32444132491946" height="9" rx="4" fill="rgba(255,255,255,0.09402451830916106)"/><rect x="1550" y="262.2107447157614" width="161.6667130663991" height="9" rx="4" fill="rgba(255,255,255,0.17389500469900665)"/><rect x="1550" y="292.2107447157614" width="143.0247708298266" height="9" rx="4" fill="rgba(255,255,255,0.15499367385171353)"/><rect x="1800" y="405.9265822172165" width="240" height="475.36359779536724" rx="18" fill="#08090a" fill-opacity="0.6958653869107365" stroke="rgba(255,255,255,0.09)"/><rect x="1830" y="439.9265822172165" width="170.27243487350643" height="9" rx="4" fill="rgba(255,255,255,0.09298598002642393)"/><rect x="1830" y="469.9265822172165" width="88.73164003528655" height="9" rx="4" fill="rgba(255,255,255,0.1214578920789063)"/><rect x="1830" y="499.9265822172165" width="98.14079824648798" height="9" rx="4" fill="rgba(255,255,255,0.10052939213812351)"/><rect x="1830" y="529.9265822172165" width="86.77686678059399" height="9" rx="4" fill="rgba(255,255,255,0.15250612495467067)"/><line x1="0" y1="659.683299344033" x2="2200" y2="659.683299344033" stroke="#08090a" stroke-opacity="0.09514147959649563" stroke-width="3.6329048017505556"/><line x1="0" y1="629.3351048603654" x2="2200" y2="629.3351048603654" stroke="#08090a" stroke-opacity="0.08657995114102959" stroke-width="3.7021922543644905"/><line x1="0" y1="108.15998883917928" x2="2200" y2="108.15998883917928" stroke="#08090a" stroke-opacity="0.07258027348667384" stroke-width="3.197906634537503"/><line x1="0" y1="499.6229823678732" x2="2200" y2="499.6229823678732" stroke="#08090a" stroke-opacity="0.06853383010253311" stroke-width="1.4663821277208626"/><line x1="0" y1="567.7393949590623" x2="2200" y2="567.7393949590623" stroke="#08090a" stroke-opacity="0.1133117200434208" stroke-width="1.3634017307776958"/><line x1="0" y1="789.650665037334" x2="2200" y2="789.650665037334" stroke="#08090a" stroke-opacity="0.1171001890487969" stroke-width="1.4148207427933812"/><line x1="0" y1="82.04082855954766" x2="2200" y2="82.04082855954766" stroke="#08090a" stroke-opacity="0.07289597656577826" stroke-width="2.2854471204336733"/><line x1="0" y1="1030.537511408329" x2="2200" y2="1030.537511408329" stroke="#08090a" stroke-opacity="0.04896390108391643" stroke-width="1.61264289310202"/><line x1="0" y1="47.93782336637378" x2="2200" y2="47.93782336637378" stroke="#08090a" stroke-opacity="0.11924803204834461" stroke-width="2.1036515741143376"/><line x1="0" y1="137.8426345065236" x2="2200" y2="137.8426345065236" stroke="#08090a" stroke-opacity="0.06629890257492661" stroke-width="3.988523783162236"/><line x1="0" y1="903.3488159067929" x2="2200" y2="903.3488159067929" stroke="#08090a" stroke-opacity="0.051405254788696765" stroke-width="2.147972249193117"/><line x1="0" y1="86.51683665812016" x2="2200" y2="86.51683665812016" stroke="#08090a" stroke-opacity="0.0480546616576612" stroke-width="1.1717933625914156"/><line x1="0" y1="422.02855786308646" x2="2200" y2="422.02855786308646" stroke="#08090a" stroke-opacity="0.10457057476043702" stroke-width="3.806445784168318"/><line x1="0" y1="350.8386751636863" x2="2200" y2="350.8386751636863" stroke="#08090a" stroke-opacity="0.041937226820737125" stroke-width="1.8009709483012557"/><line x1="0" y1="350.37002647295594" x2="2200" y2="350.37002647295594" stroke="#08090a" stroke-opacity="0.11677309762686491" stroke-width="2.4704798178281635"/><line x1="0" y1="850.789736956358" x2="2200" y2="850.789736956358" stroke="#08090a" stroke-opacity="0.05801258994266391" stroke-width="1.9434906425885856"/><line x1="0" y1="188.02347360178828" x2="2200" y2="188.02347360178828" stroke="#08090a" stroke-opacity="0.07037857227027416" stroke-width="3.6960105972830206"/><line x1="0" y1="299.05857536941767" x2="2200" y2="299.05857536941767" stroke="#08090a" stroke-opacity="0.09056322315707803" stroke-width="1.2966614924371243"/><line x1="0" y1="471.5611291117966" x2="2200" y2="471.5611291117966" stroke="#08090a" stroke-opacity="0.0914477587118745" stroke-width="1.7295745264273137"/><line x1="0" y1="698.7221371382475" x2="2200" y2="698.7221371382475" stroke="#08090a" stroke-opacity="0.08990677392110229" stroke-width="2.9404922728426754"/></g></svg>
