<svg xmlns="http://www.w3.org/2000/svg" viewBox="0 0 2200 1200" width="2200" height="1200" role="img">
  <defs>
    <linearGradient id="bg0" x1="0" y1="0" x2="1" y2="0.7">
      <stop offset="0" stop-color="#cfcecb" stop-opacity="0.3"/>
      <stop offset="0.5" stop-color="#cfcecb" stop-opacity="0.1"/>
      <stop offset="1" stop-color="#08090a" stop-opacity="1"/>
    </linearGradient>
    <clipPath id="bc0"><rect width="2200" height="1200"/></clipPath>
  </defs>
  <g clip-path="url(#bc0)">
    <rect width="2200" height="1200" fill="#0a0b0c"/>
    <rect width="2200" height="1200" fill="url(#bg0)"/><rect x="120" y="270.62093215994537" width="240" height="801.3811747916043" rx="18" fill="#08090a" fill-opacity="0.5121485156938433" stroke="rgba(255,255,255,0.09)"/><rect x="150" y="304.62093215994537" width="132.75374512933195" height="9" rx="4" fill="rgba(255,255,255,0.17593955799937247)"/><rect x="150" y="334.62093215994537" width="153.10706222243607" height="9" rx="4" fill="rgba(255,255,255,0.1410739571414888)"/><rect x="150" y="364.62093215994537" width="128.83909337036312" height="9" rx="4" fill="rgba(255,255,255,0.1402204604074359)"/><rect x="150" y="394.62093215994537" width="142.18784397281706" height="9" rx="4" fill="rgba(255,255,255,0.14931701006367804)"/><rect x="400" y="483.9197774906643" width="240" height="326.60606877412647" rx="18" fill="#08090a" fill-opacity="0.6717791250906885" stroke="rgba(255,255,255,0.09)"/><rect x="430" y="517.9197774906643" width="114.7856302075088" height="9" rx="4" fill="rgba(255,255,255,0.11944931033067405)"/><rect x="430" y="547.9197774906643" width="83.60632196813822" height="9" rx="4" fill="rgba(255,255,255,0.0614021720085293)"/><rect x="430" y="577.9197774906643" width="170.69065398350358" height="9" rx="4" fill="rgba(255,255,255,0.10915004803799092)"/><rect x="430" y="607.9197774906643" width="144.03859359025955" height="9" rx="4" fill="rgba(255,255,255,0.12832398352213203)"/><rect x="680" y="426.6756295459345" width="240" height="236.16839013062418" rx="18" fill="#08090a" fill-opacity="0.5620797771960497" stroke="rgba(255,255,255,0.09)"/><rect x="710" y="460.6756295459345" width="82.6693331245333" height="9" rx="4" fill="rgba(255,255,255,0.06004727052524686)"/><rect x="710" y="490.6756295459345" width="183.29919326864183" height="9" rx="4" fill="rgba(255,255,255,0.17800364278256892)"/><rect x="710" y="520.6756295459345" width="153.8308122921735" height="9" rx="4" fill="rgba(255,255,255,0.16115878684446217)"/><rect x="710" y="550.6756295459345" width="190.00043511204422" height="9" rx="4" fill="rgba(255,255,255,0.08258303213864565)"/><rect x="960" y="400.00924373744056" width="240" height="457.810135432519" rx="18" fill="#08090a" fill-opacity="0.48010836439207194" stroke="rgba(255,255,255,0.09)"/><rect x="990" y="434.00924373744056" width="122.90007081627847" height="9" rx="4" fill="rgba(255,255,255,0.08870362264104187)"/><rect x="990" y="464.00924373744056" width="117.80473696812987" height="9" rx="4" fill="rgba(255,255,255,0.1381300331186503)"/><rect x="990" y="494.00924373744056" width="93.70497816056013" height="9" rx="4" fill="rgba(255,255,255,0.16710086309351024)"/><rect x="990" y="524.0092437374406" width="164.46888192370534" height="9" rx="4" fill="rgba(255,255,255,0.17401221237145365)"/><rect x="1240" y="372.00524436309934" width="240" height="438.3163781836629" rx="18" fill="#08090a" fill-opacity="0.47960611078888177" stroke="rgba(255,255,255,0.09)"/><rect x="1270" y="406.00524436309934" width="118.79641577415168" height="9" rx="4" fill="rgba(255,255,255,0.09229462657123805)"/><rect x="1270" y="436.00524436309934" width="113.62164674140513" height="9" rx="4" fill="rgba(255,255,255,0.1598703941144049)"/><rect x="1270" y="466.00524436309934" width="148.09143658541143" height="9" rx="4" fill="rgba(255,255,255,0.1468104887008667)"/><rect x="1270" y="496.00524436309934" width="89.03296688385308" height="9" rx="4" fill="rgba(255,255,255,0.08753050228580832)"/><rect x="1520" y="125.96554698655382" width="240" height="807.8347828565165" rx="18" fill="#08090a" fill-opacity="0.38958947686478496" stroke="rgba(255,255,255,0.09)"/><rect x="1550" y="159.96554698655382" width="77.52166359499097" height="9" rx="4" fill="rgba(255,255,255,0.11542360908351838)"/><rect x="1550" y="189.96554698655382" width="123.2379001826048" height="9" rx="4" fill="rgba(255,255,255,0.09412960697896777)"/><rect x="1550" y="219.96554698655382" width="124.38482309505345" height="9" rx="4" fill="rgba(255,255,255,0.09599045055918395)"/><rect x="1550" y="249.96554698655382" width="105.0451824143529" height="9" rx="4" fill="rgba(255,255,255,0.10058640749193729)"/><rect x="1800" y="150.594193036668" width="240" height="811.0031471494585" rx="18" fill="#08090a" fill-opacity="0.5592242792248726" stroke="rgba(255,255,255,0.09)"/><rect x="1830" y="184.594193036668" width="128.34119105525315" height="9" rx="4" fill="rgba(255,255,255,0.08936940198764204)"/><rect x="1830" y="214.594193036668" width="124.17163662426175" height="9" rx="4" fill="rgba(255,255,255,0.08178015600889921)"/><rect x="1830" y="244.594193036668" width="154.50886970199645" height="9" rx="4" fill="rgba(255,255,255,0.08466887237504124)"/><rect x="1830" y="274.594193036668" width="95.11822227202356" height="9" rx="4" fill="rgba(255,255,255,0.06725549675524234)"/><line x1="0" y1="640.646765101701" x2="2200" y2="640.646765101701" stroke="#08090a" stroke-opacity="0.04266416508704424" stroke-width="2.0603856302332133"/><line x1="0" y1="439.7471431642771" x2="2200" y2="439.7471431642771" stroke="#08090a" stroke-opacity="0.06645047238096595" stroke-width="2.928451193962246"/><line x1="0" y1="372.7335705421865" x2="2200" y2="372.7335705421865" stroke="#08090a" stroke-opacity="0.0819858866930008" stroke-width="1.6349914364982396"/><line x1="0" y1="1131.6164603456855" x2="2200" y2="1131.6164603456855" stroke="#08090a" stroke-opacity="0.051462564636021856" stroke-width="3.4107329538092017"/><line x1="0" y1="391.25727200880647" x2="2200" y2="391.25727200880647" stroke="#08090a" stroke-opacity="0.10626480173319577" stroke-width="3.9246394576039165"/><line x1="0" y1="80.54883107542992" x2="2200" y2="80.54883107542992" stroke="#08090a" stroke-opacity="0.10842182649299503" stroke-width="1.7360758888535202"/><line x1="0" y1="970.8391296677291" x2="2200" y2="970.8391296677291" stroke="#08090a" stroke-opacity="0.059039449617266655" stroke-width="3.203485697740689"/><line x1="0" y1="1095.694295503199" x2="2200" y2="1095.694295503199" stroke="#08090a" stroke-opacity="0.06870026865974069" stroke-width="1.509110976010561"/><line x1="0" y1="262.2191590256989" x2="2200" y2="262.2191590256989" stroke="#08090a" stroke-opacity="0.08193058792501688" stroke-width="2.9031747456174344"/><line x1="0" y1="1060.6611113995314" x2="2200" y2="1060.6611113995314" stroke="#08090a" stroke-opacity="0.0946489248238504" stroke-width="2.5179196526296437"/><line x1="0" y1="367.19891047105193" x2="2200" y2="367.19891047105193" stroke="#08090a" stroke-opacity="0.06998222634196281" stroke-width="1.9070235055405647"/><line x1="0" y1="803.5055307671428" x2="2200" y2="803.5055307671428" stroke="#08090a" stroke-opacity="0.0484587830491364" stroke-width="2.3027613097801805"/><line x1="0" y1="590.9463093616068" x2="2200" y2="590.9463093616068" stroke="#08090a" stroke-opacity="0.06592477973550559" stroke-width="3.3578005095478147"/><line x1="0" y1="240.54359793663025" x2="2200" y2="240.54359793663025" stroke="#08090a" stroke-opacity="0.06104246912524104" stroke-width="3.0552298626862466"/><line x1="0" y1="478.15669728443027" x2="2200" y2="478.15669728443027" stroke="#08090a" stroke-opacity="0.07065526224672794" stroke-width="3.5978752246592194"/><line x1="0" y1="786.6119222715497" x2="2200" y2="786.6119222715497" stroke="#08090a" stroke-opacity="0.1128800412453711" stroke-width="2.1077270936220884"/><line x1="0" y1="459.48609011247754" x2="2200" y2="459.48609011247754" stroke="#08090a" stroke-opacity="0.06449506927281617" stroke-width="2.2775039568077773"/><line x1="0" y1="792.7637536078691" x2="2200" y2="792.7637536078691" stroke="#08090a" stroke-opacity="0.0513503803871572" stroke-width="2.9049764000810683"/><line x1="0" y1="620.2195434831083" x2="2200" y2="620.2195434831083" stroke="#08090a" stroke-opacity="0.06792651921510696" stroke-width="1.3105736405123025"/><line x1="0" y1="518.8710635527968" x2="2200" y2="518.8710635527968" stroke="#08090a" stroke-opacity="0.07602278577163815" stroke-width="2.7389490185305476"/></g></svg>
