<svg xmlns="http://www.w3.org/2000/svg" viewBox="0 0 1440 900" width="1440" height="900" role="img"><rect width="1440" height="900" fill="#0d0d0d"/><rect x="0" y="0" width="230" height="900" fill="#131313"/><rect x="28" y="34" width="26" height="26" rx="7" fill="#cfcecb"/><rect x="30" y="104" width="14" height="14" rx="4" fill="rgba(247,246,244,0.2)"/><rect x="56" y="107" width="140.32402206212282" height="9" rx="4" fill="rgba(247,246,244,0.2)"/><rect x="30" y="150" width="14" height="14" rx="4" fill="rgba(247,246,244,0.2)"/><rect x="56" y="153" width="101.70839281752706" height="9" rx="4" fill="rgba(247,246,244,0.2)"/><rect x="16" y="186" width="198" height="36" rx="8" fill="#191919"/><rect x="30" y="196" width="14" height="14" rx="4" fill="#cfcecb"/><rect x="56" y="199" width="141.44003205001354" height="9" rx="4" fill="rgba(236,235,231,0.8)"/><rect x="30" y="242" width="14" height="14" rx="4" fill="rgba(247,246,244,0.2)"/><rect x="56" y="245" width="128.23348661884665" height="9" rx="4" fill="rgba(247,246,244,0.2)"/><rect x="30" y="288" width="14" height="14" rx="4" fill="rgba(247,246,244,0.2)"/><rect x="56" y="291" width="143.19967355579138" height="9" rx="4" fill="rgba(247,246,244,0.2)"/><rect x="30" y="334" width="14" height="14" rx="4" fill="rgba(247,246,244,0.2)"/><rect x="56" y="337" width="135.51089147105813" height="9" rx="4" fill="rgba(247,246,244,0.2)"/><rect x="30" y="380" width="14" height="14" rx="4" fill="rgba(247,246,244,0.2)"/><rect x="56" y="383" width="125.51130086183548" height="9" rx="4" fill="rgba(247,246,244,0.2)"/><rect x="30" y="426" width="14" height="14" rx="4" fill="rgba(247,246,244,0.2)"/><rect x="56" y="429" width="116.95248452946544" height="9" rx="4" fill="rgba(247,246,244,0.2)"/><rect x="230" y="0" width="1210" height="78" fill="#131313"/><rect x="270" y="32" width="240" height="14" rx="6" fill="rgba(236,235,231,0.72)"/><rect x="1250" y="26" width="140" height="28" rx="14" fill="#cfcecb" fill-opacity="0.9"/><rect x="268" y="112" width="264" height="118" rx="14" fill="#131313" stroke="rgba(247,246,244,0.08)"/><rect x="290" y="140" width="62.3976347129792" height="8" rx="4" fill="rgba(247,246,244,0.2)"/><rect x="290" y="166" width="127.08470006939024" height="24" rx="6" fill="rgba(236,235,231,0.72)"/><rect x="290" y="204" width="116.06277354061604" height="7" rx="3" fill="rgba(247,246,244,0.08)"/><rect x="556" y="112" width="264" height="118" rx="14" fill="#131313" stroke="rgba(247,246,244,0.08)"/><rect x="578" y="140" width="102.75984880048782" height="8" rx="4" fill="rgba(247,246,244,0.2)"/><rect x="578" y="166" width="121.48871035315096" height="24" rx="6" fill="rgba(236,235,231,0.72)"/><rect x="578" y="204" width="163.01954263821244" height="7" rx="3" fill="rgba(247,246,244,0.08)"/><rect x="844" y="112" width="264" height="118" rx="14" fill="#131313" stroke="rgba(247,246,244,0.08)"/><rect x="866" y="140" width="99.82148129492998" height="8" rx="4" fill="rgba(247,246,244,0.2)"/><rect x="866" y="166" width="95.31652169767767" height="24" rx="6" fill="#cfcecb"/><rect x="866" y="204" width="159.92387373000383" height="7" rx="3" fill="rgba(247,246,244,0.08)"/><rect x="1132" y="112" width="264" height="118" rx="14" fill="#131313" stroke="rgba(247,246,244,0.08)"/><rect x="1154" y="140" width="86.10440434422344" height="8" rx="4" fill="rgba(247,246,244,0.2)"/><rect x="1154" y="166" width="137.80514689162374" height="24" rx="6" fill="rgba(236,235,231,0.72)"/><rect x="1154" y="204" width="158.39181115850806" height="7" rx="3" fill="rgba(247,246,244,0.08)"/><rect x="268" y="256" width="700" height="330" rx="14" fill="#131313" stroke="rgba(247,246,244,0.08)"/><polyline points="300,368.9091230323538 329,413.16251389915124 358,378.59506987035275 387,273.82303406251594 416,280.91999451164156 445,289.01157533051446 474,397.57410974241793 503,440.16608336707577 532,385.06366695743054 561,305.3894022316672 590,309.89675099030137 619,374.5892165484838 648,290.8224501879886 677,294.0462468494661 706,404.184192745015 735,378.5759812942706 764,420.4109309380874 793,359.9668050953187 822,301.398370526731 851,297.8480921010487 880,340.65158321056515 909,291.6906511154957 938,296.1951056588441 " fill="none" stroke="#cfcecb" stroke-width="2.5" stroke-linejoin="round"/><line x1="300" y1="300" x2="936" y2="300" stroke="rgba(247,246,244,0.08)"/><line x1="300" y1="355" x2="936" y2="355" stroke="rgba(247,246,244,0.08)"/><line x1="300" y1="410" x2="936" y2="410" stroke="rgba(247,246,244,0.08)"/><line x1="300" y1="465" x2="936" y2="465" stroke="rgba(247,246,244,0.08)"/><line x1="300" y1="520" x2="936" y2="520" stroke="rgba(247,246,244,0.08)"/><rect x="996" y="256" width="416" height="330" rx="14" fill="#131313" stroke="rgba(247,246,244,0.08)"/><circle cx="1030" cy="300" r="12" fill="#cfcecb"/><rect x="1056" y="292" width="300.29989670962095" height="9" rx="4" fill="rgba(247,246,244,0.2)"/><rect x="1056" y="309" width="136.87956982757896" height="7" rx="3" fill="rgba(247,246,244,0.08)"/><circle cx="1030" cy="362" r="12" fill="#191919"/><rect x="1056" y="354" width="297.26821053773165" height="9" rx="4" fill="rgba(247,246,244,0.2)"/><rect x="1056" y="371" width="93.32785880193114" height="7" rx="3" fill="rgba(247,246,244,0.08)"/><circle cx="1030" cy="424" r="12" fill="#191919"/><rect x="1056" y="416" width="169.63271465152502" height="9" rx="4" fill="rgba(247,246,244,0.2)"/><rect x="1056" y="433" width="96.82099050376564" height="7" rx="3" fill="rgba(247,246,244,0.08)"/><circle cx="1030" cy="486" r="12" fill="#191919"/><rect x="1056" y="478" width="249.7144854441285" height="9" rx="4" fill="rgba(247,246,244,0.2)"/><rect x="1056" y="495" width="113.43080456368625" height="7" rx="3" fill="rgba(247,246,244,0.08)"/><circle cx="1030" cy="548" r="12" fill="#191919"/><rect x="1056" y="540" width="233.26664429157972" height="9" rx="4" fill="rgba(247,246,244,0.2)"/><rect x="1056" y="557" width="156.85892853420228" height="7" rx="3" fill="rgba(247,246,244,0.08)"/><rect x="268" y="614" width="1144" height="240" rx="14" fill="#131313" stroke="rgba(247,246,244,0.08)"/><rect x="296" y="654" width="169.26451060222462" height="9" rx="4" fill="rgba(247,246,244,0.2)" fill-opacity="1"/><rect x="620" y="654" width="127.25488871335983" height="9" rx="4" fill="rgba(247,246,244,0.08)"/><rect x="900" y="654" width="121.56602574978024" height="9" rx="4" fill="rgba(247,246,244,0.08)"/><rect x="1240" y="648" width="64" height="20" rx="10" fill="#cfcecb" fill-opacity="0.18"/><line x1="296" y1="676" x2="1384" y2="676" stroke="rgba(247,246,244,0.08)"/><rect x="296" y="694" width="139.76284698117524" height="9" rx="4" fill="#cfcecb" fill-opacity="0.9"/><rect x="620" y="694" width="122.09135643905029" height="9" rx="4" fill="rgba(247,246,244,0.08)"/><rect x="900" y="694" width="105.6584013812244" height="9" rx="4" fill="rgba(247,246,244,0.08)"/><rect x="1240" y="688" width="64" height="20" rx="10" fill="#cfcecb" fill-opacity="0.18"/><line x1="296" y1="716" x2="1384" y2="716" stroke="rgba(247,246,244,0.08)"/><rect x="296" y="734" width="172.08474135724828" height="9" rx="4" fill="rgba(247,246,244,0.2)" fill-opacity="1"/><rect x="620" y="734" width="84.16405985597521" height="9" rx="4" fill="rgba(247,246,244,0.08)"/><rect x="900" y="734" width="77.07702163141221" height="9" rx="4" fill="rgba(247,246,244,0.08)"/><rect x="1240" y="728" width="64" height="20" rx="10" fill="#cfcecb" fill-opacity="0.18"/><line x1="296" y1="756" x2="1384" y2="756" stroke="rgba(247,246,244,0.08)"/><rect x="296" y="774" width="170.39265716448426" height="9" rx="4" fill="rgba(247,246,244,0.2)" fill-opacity="1"/><rect x="620" y="774" width="110.26553500676528" height="9" rx="4" fill="rgba(247,246,244,0.08)"/><rect x="900" y="774" width="83.87019491754472" height="9" rx="4" fill="rgba(247,246,244,0.08)"/><rect x="1240" y="768" width="64" height="20" rx="10" fill="#cfcecb" fill-opacity="0.18"/><line x1="296" y1="796" x2="1384" y2="796" stroke="rgba(247,246,244,0.08)"/><rect x="296" y="814" width="150.53880674997345" height="9" rx="4" fill="rgba(247,246,244,0.2)" fill-opacity="1"/><rect x="620" y="814" width="148.87347997166216" height="9" rx="4" fill="rgba(247,246,244,0.08)"/><rect x="900" y="814" width="117.80679062474519" height="9" rx="4" fill="rgba(247,246,244,0.08)"/><rect x="1240" y="808" width="64" height="20" rx="10" fill="#cfcecb" fill-opacity="0.18"/><text x="268" y="884" fill="rgba(247,246,244,0.5)" font-family="Manrope, sans-serif" font-size="15">PLACEHOLDER — issue-handling sub-flow, three branches</text></svg>
