<svg xmlns="http://www.w3.org/2000/svg" viewBox="0 0 2200 1200" width="2200" height="1200" role="img">
  <defs>
    <linearGradient id="bg0" x1="0" y1="0" x2="1" y2="0.7">
      <stop offset="0" stop-color="#d6d5d2" stop-opacity="0.3"/>
      <stop offset="0.5" stop-color="#d6d5d2" stop-opacity="0.1"/>
      <stop offset="1" stop-color="#08090a" stop-opacity="1"/>
    </linearGradient>
    <clipPath id="bc0"><rect width="2200" height="1200"/></clipPath>
  </defs>
  <g clip-path="url(#bc0)">
    <rect width="2200" height="1200" fill="#0a0b0c"/>
    <rect width="2200" height="1200" fill="url(#bg0)"/><rect x="120" y="385.52865776931867" width="286.6666666666667" height="362.706138570793" rx="18" fill="#08090a" fill-opacity="0.3112415635026991" stroke="rgba(255,255,255,0.09)"/><rect x="150" y="419.52865776931867" width="214.25341945824528" height="9" rx="4" fill="rgba(255,255,255,0.1466736098472029)"/><rect x="150" y="449.52865776931867" width="156.18444728261483" height="9" rx="4" fill="rgba(255,255,255,0.1528879567142576)"/><rect x="150" y="479.52865776931867" width="222.73755899692577" height="9" rx="4" fill="rgba(255,255,255,0.1486541307438165)"/><rect x="150" y="509.52865776931867" width="140.1137177605803" height="9" rx="4" fill="rgba(255,255,255,0.17432805153541264)"/><rect x="446.6666666666667" y="326.27019240520895" width="286.6666666666667" height="449.6023874916136" rx="18" fill="#08090a" fill-opacity="0.5420097379013896" stroke="rgba(255,255,255,0.09)"/><rect x="476.6666666666667" y="360.27019240520895" width="140.97102071143067" height="9" rx="4" fill="rgba(255,255,255,0.15383952856063843)"/><rect x="476.6666666666667" y="390.27019240520895" width="121.36218880753344" height="9" rx="4" fill="rgba(255,255,255,0.07213501593098044)"/><rect x="476.6666666666667" y="420.27019240520895" width="164.49969151352224" height="9" rx="4" fill="rgba(255,255,255,0.1098303809389472)"/><rect x="476.6666666666667" y="450.27019240520895" width="161.44177740889913" height="9" rx="4" fill="rgba(255,255,255,0.17585131304338575)"/><rect x="773.3333333333334" y="385.2763998811133" width="286.6666666666667" height="588.3871083846316" rx="18" fill="#08090a" fill-opacity="0.30768737560138104" stroke="rgba(255,255,255,0.09)"/><rect x="803.3333333333334" y="419.2763998811133" width="201.849194599626" height="9" rx="4" fill="rgba(255,255,255,0.16700429457239807)"/><rect x="803.3333333333334" y="449.2763998811133" width="123.92513717276356" height="9" rx="4" fill="rgba(255,255,255,0.1237302449438721)"/><rect x="803.3333333333334" y="479.2763998811133" width="103.07261899641405" height="9" rx="4" fill="rgba(255,255,255,0.1757900223042816)"/><rect x="803.3333333333334" y="509.2763998811133" width="151.9383393203219" height="9" rx="4" fill="rgba(255,255,255,0.16445042920298875)"/><rect x="1100" y="381.1367263318971" width="286.6666666666667" height="504.81918483041227" rx="18" fill="#08090a" fill-opacity="0.5099584940820933" stroke="rgba(255,255,255,0.09)"/><rect x="1130" y="415.1367263318971" width="106.34945809670414" height="9" rx="4" fill="rgba(255,255,255,0.15396962167695163)"/><rect x="1130" y="445.1367263318971" width="196.90414836925146" height="9" rx="4" fill="rgba(255,255,255,0.08907968737185001)"/><rect x="1130" y="475.1367263318971" width="199.41343809928128" height="9" rx="4" fill="rgba(255,255,255,0.12437186418101191)"/><rect x="1130" y="505.1367263318971" width="92.63401085495329" height="9" rx="4" fill="rgba(255,255,255,0.1527249074354768)"/><rect x="1426.6666666666667" y="368.85928249685094" width="286.6666666666667" height="380.1988342637196" rx="18" fill="#08090a" fill-opacity="0.5181758885271848" stroke="rgba(255,255,255,0.09)"/><rect x="1456.6666666666667" y="402.85928249685094" width="127.30791462957859" height="9" rx="4" fill="rgba(255,255,255,0.1329225003439933)"/><rect x="1456.6666666666667" y="432.85928249685094" width="125.67137262690812" height="9" rx="4" fill="rgba(255,255,255,0.12029989982955158)"/><rect x="1456.6666666666667" y="462.85928249685094" width="180.47092962451282" height="9" rx="4" fill="rgba(255,255,255,0.16155598738230764)"/><rect x="1456.6666666666667" y="492.85928249685094" width="167.49179923192912" height="9" rx="4" fill="rgba(255,255,255,0.13893734193406998)"/><rect x="1753.3333333333335" y="409.74541468545794" width="286.6666666666667" height="444.9566503986716" rx="18" fill="#08090a" fill-opacity="0.4460065299645066" stroke="rgba(255,255,255,0.09)"/><rect x="1783.3333333333335" y="443.74541468545794" width="90.91502883145586" height="9" rx="4" fill="rgba(255,255,255,0.09533198107033967)"/><rect x="1783.3333333333335" y="473.74541468545794" width="174.53134298774728" height="9" rx="4" fill="rgba(255,255,255,0.13606584230437874)"/><rect x="1783.3333333333335" y="503.74541468545794" width="186.91843526111919" height="9" rx="4" fill="rgba(255,255,255,0.12052137807011604)"/><rect x="1783.3333333333335" y="533.745414685458" width="199.6637115517321" height="9" rx="4" fill="rgba(255,255,255,0.1743966052494943)"/><line x1="0" y1="376.810712646693" x2="2200" y2="376.810712646693" stroke="#08090a" stroke-opacity="0.11564998693764211" stroke-width="2.252230620244518"/><line x1="0" y1="1152.546569891274" x2="2200" y2="1152.546569891274" stroke="#08090a" stroke-opacity="0.07083532268181443" stroke-width="1.9139644373208284"/><line x1="0" y1="945.294148195535" x2="2200" y2="945.294148195535" stroke="#08090a" stroke-opacity="0.09502044934779405" stroke-width="2.962602802319452"/><line x1="0" y1="55.093881860375404" x2="2200" y2="55.093881860375404" stroke="#08090a" stroke-opacity="0.05513234725221992" stroke-width="2.094828969333321"/><line x1="0" y1="1159.353385772556" x2="2200" y2="1159.353385772556" stroke="#08090a" stroke-opacity="0.05184897541999817" stroke-width="3.0511153854895383"/><line x1="0" y1="618.0943569168448" x2="2200" y2="618.0943569168448" stroke="#08090a" stroke-opacity="0.07951523857191206" stroke-width="2.5513506149873137"/><line x1="0" y1="236.24627077952027" x2="2200" y2="236.24627077952027" stroke="#08090a" stroke-opacity="0.0738100565597415" stroke-width="1.8730203078594059"/><line x1="0" y1="334.4574384391308" x2="2200" y2="334.4574384391308" stroke="#08090a" stroke-opacity="0.08339996410533786" stroke-width="1.9051703247241676"/><line x1="0" y1="537.186165433377" x2="2200" y2="537.186165433377" stroke="#08090a" stroke-opacity="0.07235330395400524" stroke-width="1.830605440074578"/><line x1="0" y1="891.3376221433282" x2="2200" y2="891.3376221433282" stroke="#08090a" stroke-opacity="0.06925197938457131" stroke-width="2.1201453022658825"/><line x1="0" y1="626.983214635402" x2="2200" y2="626.983214635402" stroke="#08090a" stroke-opacity="0.06124150399118662" stroke-width="3.749363790033385"/><line x1="0" y1="988.3236955851316" x2="2200" y2="988.3236955851316" stroke="#08090a" stroke-opacity="0.05217836057767272" stroke-width="1.1697245691902936"/><line x1="0" y1="598.6941567622125" x2="2200" y2="598.6941567622125" stroke="#08090a" stroke-opacity="0.07163774594664574" stroke-width="3.9233979370910674"/><line x1="0" y1="263.77617102116346" x2="2200" y2="263.77617102116346" stroke="#08090a" stroke-opacity="0.06095670463517308" stroke-width="1.6625612238422036"/><line x1="0" y1="971.7279450036585" x2="2200" y2="971.7279450036585" stroke="#08090a" stroke-opacity="0.04939591880887747" stroke-width="1.0240294223185629"/><line x1="0" y1="912.9554897546768" x2="2200" y2="912.9554897546768" stroke="#08090a" stroke-opacity="0.08799103138968348" stroke-width="2.8903506523929536"/><line x1="0" y1="651.1513198725879" x2="2200" y2="651.1513198725879" stroke="#08090a" stroke-opacity="0.11559949912130832" stroke-width="3.8185125088784844"/><line x1="0" y1="496.81795109063387" x2="2200" y2="496.81795109063387" stroke="#08090a" stroke-opacity="0.07888804698362947" stroke-width="3.4484073873609304"/><line x1="0" y1="805.8603485114872" x2="2200" y2="805.8603485114872" stroke="#08090a" stroke-opacity="0.07865917671471834" stroke-width="3.4377439140807837"/><line x1="0" y1="158.71569402515888" x2="2200" y2="158.71569402515888" stroke="#08090a" stroke-opacity="0.07492525300011038" stroke-width="3.086329246405512"/></g></svg>
