<svg xmlns="http://www.w3.org/2000/svg" viewBox="0 0 1440 900" width="1440" height="900" role="img"><rect width="1440" height="900" fill="#0d0e10"/><rect x="0" y="0" width="230" height="900" fill="#16181c"/><rect x="28" y="34" width="26" height="26" rx="7" fill="#ffb26b"/><rect x="30" y="104" width="14" height="14" rx="4" fill="rgba(236,235,231,0.22)"/><rect x="56" y="107" width="138.4204664453864" height="9" rx="4" fill="rgba(236,235,231,0.22)"/><rect x="16" y="140" width="198" height="36" rx="8" fill="#1e2126"/><rect x="30" y="150" width="14" height="14" rx="4" fill="#ffb26b"/><rect x="56" y="153" width="145.7954446412623" height="9" rx="4" fill="rgba(236,235,231,0.8)"/><rect x="30" y="196" width="14" height="14" rx="4" fill="rgba(236,235,231,0.22)"/><rect x="56" y="199" width="141.37693494558334" height="9" rx="4" fill="rgba(236,235,231,0.22)"/><rect x="30" y="242" width="14" height="14" rx="4" fill="rgba(236,235,231,0.22)"/><rect x="56" y="245" width="141.52573494240642" height="9" rx="4" fill="rgba(236,235,231,0.22)"/><rect x="30" y="288" width="14" height="14" rx="4" fill="rgba(236,235,231,0.22)"/><rect x="56" y="291" width="142.84044686704874" height="9" rx="4" fill="rgba(236,235,231,0.22)"/><rect x="30" y="334" width="14" height="14" rx="4" fill="rgba(236,235,231,0.22)"/><rect x="56" y="337" width="113.70681213214993" height="9" rx="4" fill="rgba(236,235,231,0.22)"/><rect x="30" y="380" width="14" height="14" rx="4" fill="rgba(236,235,231,0.22)"/><rect x="56" y="383" width="130.34970469772816" height="9" rx="4" fill="rgba(236,235,231,0.22)"/><rect x="30" y="426" width="14" height="14" rx="4" fill="rgba(236,235,231,0.22)"/><rect x="56" y="429" width="81.09742378816009" height="9" rx="4" fill="rgba(236,235,231,0.22)"/><rect x="230" y="0" width="1210" height="78" fill="#16181c"/><rect x="270" y="32" width="240" height="14" rx="6" fill="rgba(236,235,231,0.72)"/><rect x="1250" y="26" width="140" height="28" rx="14" fill="#ffb26b" fill-opacity="0.9"/><rect x="268" y="112" width="264" height="118" rx="14" fill="#16181c" stroke="rgba(236,235,231,0.10)"/><rect x="290" y="140" width="88.662318745628" height="8" rx="4" fill="rgba(236,235,231,0.22)"/><rect x="290" y="166" width="130.27414481621236" height="24" rx="6" fill="rgba(236,235,231,0.72)"/><rect x="290" y="204" width="183.41904565691948" height="7" rx="3" fill="rgba(236,235,231,0.10)"/><rect x="556" y="112" width="264" height="118" rx="14" fill="#16181c" stroke="rgba(236,235,231,0.10)"/><rect x="578" y="140" width="71.8931412929669" height="8" rx="4" fill="rgba(236,235,231,0.22)"/><rect x="578" y="166" width="135.17475410364568" height="24" rx="6" fill="#ffb26b"/><rect x="578" y="204" width="112.31793226674199" height="7" rx="3" fill="rgba(236,235,231,0.10)"/><rect x="844" y="112" width="264" height="118" rx="14" fill="#16181c" stroke="rgba(236,235,231,0.10)"/><rect x="866" y="140" width="86.31880240514874" height="8" rx="4" fill="rgba(236,235,231,0.22)"/><rect x="866" y="166" width="128.73750858474523" height="24" rx="6" fill="rgba(236,235,231,0.72)"/><rect x="866" y="204" width="144.1881352290511" height="7" rx="3" fill="rgba(236,235,231,0.10)"/><rect x="1132" y="112" width="264" height="118" rx="14" fill="#16181c" stroke="rgba(236,235,231,0.10)"/><rect x="1154" y="140" width="108.50818059872836" height="8" rx="4" fill="rgba(236,235,231,0.22)"/><rect x="1154" y="166" width="103.47517669200897" height="24" rx="6" fill="rgba(236,235,231,0.72)"/><rect x="1154" y="204" width="166.86312614008784" height="7" rx="3" fill="rgba(236,235,231,0.10)"/><rect x="268" y="256" width="700" height="330" rx="14" fill="#16181c" stroke="rgba(236,235,231,0.10)"/><polyline points="300,379.43105208221823 329,417.11423945846036 358,324.5816788915545 387,304.2040498717688 416,411.25989112537354 445,335.4225475550629 474,331.1161762662232 503,398.44662031857297 532,395.8328578295186 561,342.8257646341808 590,341.02479497902095 619,402.00954001164064 648,304.73496129270643 677,436.59282732987776 706,371.0583499446511 735,345.0887055764906 764,312.79679319355637 793,427.3375895735808 822,376.43204969353974 851,372.6632243930362 880,298.7299037678167 909,388.2162102893926 938,372.57903641089797 " fill="none" stroke="#ffb26b" stroke-width="2.5" stroke-linejoin="round"/><line x1="300" y1="300" x2="936" y2="300" stroke="rgba(236,235,231,0.10)"/><line x1="300" y1="355" x2="936" y2="355" stroke="rgba(236,235,231,0.10)"/><line x1="300" y1="410" x2="936" y2="410" stroke="rgba(236,235,231,0.10)"/><line x1="300" y1="465" x2="936" y2="465" stroke="rgba(236,235,231,0.10)"/><line x1="300" y1="520" x2="936" y2="520" stroke="rgba(236,235,231,0.10)"/><rect x="996" y="256" width="416" height="330" rx="14" fill="#16181c" stroke="rgba(236,235,231,0.10)"/><circle cx="1030" cy="300" r="12" fill="#ffb26b"/><rect x="1056" y="292" width="222.54405464977026" height="9" rx="4" fill="rgba(236,235,231,0.22)"/><rect x="1056" y="309" width="146.43944127950817" height="7" rx="3" fill="rgba(236,235,231,0.10)"/><circle cx="1030" cy="362" r="12" fill="#1e2126"/><rect x="1056" y="354" width="163.98558381944895" height="9" rx="4" fill="rgba(236,235,231,0.22)"/><rect x="1056" y="371" width="124.6938434522599" height="7" rx="3" fill="rgba(236,235,231,0.10)"/><circle cx="1030" cy="424" r="12" fill="#1e2126"/><rect x="1056" y="416" width="197.36620526760817" height="9" rx="4" fill="rgba(236,235,231,0.22)"/><rect x="1056" y="433" width="124.08409188967198" height="7" rx="3" fill="rgba(236,235,231,0.10)"/><circle cx="1030" cy="486" r="12" fill="#1e2126"/><rect x="1056" y="478" width="167.64226455241442" height="9" rx="4" fill="rgba(236,235,231,0.22)"/><rect x="1056" y="495" width="167.72342808544636" height="7" rx="3" fill="rgba(236,235,231,0.10)"/><circle cx="1030" cy="548" r="12" fill="#1e2126"/><rect x="1056" y="540" width="231.78674694150686" height="9" rx="4" fill="rgba(236,235,231,0.22)"/><rect x="1056" y="557" width="175.90707414317876" height="7" rx="3" fill="rgba(236,235,231,0.10)"/><rect x="268" y="614" width="1144" height="240" rx="14" fill="#16181c" stroke="rgba(236,235,231,0.10)"/><rect x="296" y="654" width="183.8342921831645" height="9" rx="4" fill="rgba(236,235,231,0.22)" fill-opacity="1"/><rect x="620" y="654" width="131.67734402231872" height="9" rx="4" fill="rgba(236,235,231,0.10)"/><rect x="900" y="654" width="76.50014985818416" height="9" rx="4" fill="rgba(236,235,231,0.10)"/><rect x="1240" y="648" width="64" height="20" rx="10" fill="#ffb26b" fill-opacity="0.18"/><line x1="296" y1="676" x2="1384" y2="676" stroke="rgba(236,235,231,0.10)"/><rect x="296" y="694" width="204.16015853639692" height="9" rx="4" fill="#ffb26b" fill-opacity="0.9"/><rect x="620" y="694" width="149.32637727586553" height="9" rx="4" fill="rgba(236,235,231,0.10)"/><rect x="900" y="694" width="82.56560128182173" height="9" rx="4" fill="rgba(236,235,231,0.10)"/><rect x="1240" y="688" width="64" height="20" rx="10" fill="#ffb26b" fill-opacity="0.18"/><line x1="296" y1="716" x2="1384" y2="716" stroke="rgba(236,235,231,0.10)"/><rect x="296" y="734" width="137.4565540230833" height="9" rx="4" fill="rgba(236,235,231,0.22)" fill-opacity="1"/><rect x="620" y="734" width="104.75774799939245" height="9" rx="4" fill="rgba(236,235,231,0.10)"/><rect x="900" y="734" width="127.44009727146477" height="9" rx="4" fill="rgba(236,235,231,0.10)"/><rect x="1240" y="728" width="64" height="20" rx="10" fill="#ffb26b" fill-opacity="0.18"/><line x1="296" y1="756" x2="1384" y2="756" stroke="rgba(236,235,231,0.10)"/><rect x="296" y="774" width="138.11229488812387" height="9" rx="4" fill="rgba(236,235,231,0.22)" fill-opacity="1"/><rect x="620" y="774" width="86.91815595375374" height="9" rx="4" fill="rgba(236,235,231,0.10)"/><rect x="900" y="774" width="104.34029717929661" height="9" rx="4" fill="rgba(236,235,231,0.10)"/><rect x="1240" y="768" width="64" height="20" rx="10" fill="#ffb26b" fill-opacity="0.18"/><line x1="296" y1="796" x2="1384" y2="796" stroke="rgba(236,235,231,0.10)"/><rect x="296" y="814" width="175.98967059748247" height="9" rx="4" fill="rgba(236,235,231,0.22)" fill-opacity="1"/><rect x="620" y="814" width="124.87574938684702" height="9" rx="4" fill="rgba(236,235,231,0.10)"/><rect x="900" y="814" width="98.5196282574907" height="9" rx="4" fill="rgba(236,235,231,0.10)"/><rect x="1240" y="808" width="64" height="20" rx="10" fill="#ffb26b" fill-opacity="0.18"/><text x="268" y="884" fill="rgba(236,235,231,0.55)" font-family="Manrope, sans-serif" font-size="15">Reason picker in floor vocabulary</text></svg>
